<svg xmlns="http://www.w3.org/2000/svg" xmlns:xlink="http://www.w3.org/1999/xlink" width="1200" zoomAndPan="magnify" viewBox="0 0 900 225" height="300" preserveAspectRatio="xMidYMid meet" version="1.0"><defs><g/></defs><g fill="#000000" fill-opacity="1"><g transform="translate(-3.276498, 175.617161)"><g><path d="M 176.492188 -93.035156 L 153.144531 -129.625 L 17.421875 -129.625 L 4.007812 -89.902344 L 26.65625 -55.753906 L 15.507812 -55.753906 L 6.445312 -28.921875 L 26.65625 0 L 126.3125 0 L 132.933594 -21.253906 L 120.042969 -42.164062 L 124.222656 -53.660156 L 162.902344 -53.660156 Z M 148.265625 -121.957031 L 137.117188 -87.113281 L 121.4375 -87.113281 L 121.4375 -90.074219 C 121.4375 -106.800781 118.820312 -109.414062 106.976562 -109.414062 L 102.96875 -109.414062 L 82.757812 -47.390625 L 102.269531 -47.390625 L 98.4375 -34.84375 L 16.898438 -34.84375 L 21.082031 -47.390625 L 36.414062 -47.390625 L 56.972656 -109.414062 L 52.964844 -109.414062 C 42.859375 -109.414062 36.585938 -107.671875 27.703125 -90.597656 L 12.542969 -90.597656 L 23.347656 -121.957031 Z M 148.265625 -121.957031 "/></g></g></g><g fill="#000000" fill-opacity="1"><g transform="translate(163.631826, 175.617161)"><g><path d="M 190.601562 -90.945312 L 167.953125 -129.625 L 17.421875 -129.625 L 10.105469 -108.019531 L 20.210938 -91.292969 L 13.765625 -73 C 10.28125 -63.242188 8.1875 -57.320312 8.1875 -48.957031 C 8.1875 -41.640625 11.152344 -34.671875 19.339844 -22.824219 C 34.148438 -1.566406 60.628906 4.355469 83.976562 4.355469 C 102.269531 4.355469 124.050781 2.789062 140.425781 -10.28125 C 148.265625 -16.550781 155.234375 -26.132812 159.070312 -39.550781 L 168.476562 -71.78125 L 184.503906 -71.78125 Z M 161.683594 -121.957031 L 157.5 -109.414062 L 141.820312 -109.414062 L 128.054688 -64.289062 C 125.09375 -54.359375 119.691406 -47.390625 113.074219 -42.335938 C 99.308594 -32.058594 79.621094 -30.488281 62.894531 -30.488281 C 51.222656 -30.488281 31.882812 -32.230469 22.476562 -39.898438 C 18.992188 -42.683594 16.898438 -46.34375 16.898438 -51.046875 C 16.898438 -57.667969 19.339844 -64.8125 21.429688 -70.910156 L 34.84375 -109.414062 L 19.511719 -109.414062 L 24.042969 -121.957031 L 93.558594 -121.957031 L 89.03125 -109.414062 L 81.1875 -109.414062 L 66.378906 -67.078125 C 63.765625 -59.410156 62.023438 -54.183594 62.023438 -50.699219 C 62.023438 -47.738281 63.59375 -43.554688 69.863281 -43.554688 C 74.742188 -43.554688 78.054688 -45.125 80.839844 -48.785156 C 83.28125 -51.917969 85.195312 -56.796875 87.460938 -63.59375 L 102.445312 -109.414062 L 96 -109.414062 L 100.527344 -121.957031 Z M 161.683594 -121.957031 "/></g></g></g><g fill="#000000" fill-opacity="1"><g transform="translate(344.303998, 175.617161)"><g><path d="M 207.328125 -90.945312 L 184.679688 -129.625 L 26.132812 -129.625 L 18.816406 -108.019531 L 28.921875 -91.292969 L 17.074219 -55.753906 L 2.089844 -55.753906 L -6.96875 -28.921875 L 13.242188 0 L 178.058594 0 L 185.027344 -21.253906 L 172.136719 -42.164062 L 181.542969 -71.78125 L 201.058594 -71.78125 Z M 178.40625 -121.957031 L 174.226562 -109.414062 L 154.710938 -109.414062 L 134.503906 -47.390625 L 154.015625 -47.390625 L 150.183594 -34.84375 L 78.75 -34.84375 L 82.929688 -47.390625 L 90.597656 -47.390625 L 99.65625 -74.917969 L 76.660156 -74.917969 L 67.25 -47.390625 L 75.960938 -47.390625 L 71.78125 -34.84375 L 3.484375 -34.84375 L 7.664062 -47.390625 L 22.996094 -47.390625 L 43.554688 -109.414062 L 28.226562 -109.414062 L 32.753906 -121.957031 L 100.355469 -121.957031 L 95.824219 -109.414062 L 87.460938 -109.414062 L 80.144531 -87.808594 L 103.492188 -87.808594 L 110.808594 -109.414062 L 102.792969 -109.414062 L 107.324219 -121.957031 Z M 178.40625 -121.957031 "/></g></g></g><g fill="#000000" fill-opacity="1"><g transform="translate(544.663659, 175.617161)"><g><path d="M 141.996094 -90.945312 L 119.519531 -129.625 L 26.132812 -129.625 L 18.816406 -108.019531 L 28.921875 -91.644531 L 17.074219 -55.753906 L 2.089844 -55.753906 L -6.96875 -28.921875 L 13.242188 0 L 112.898438 0 L 119.691406 -21.253906 L 106.800781 -42.164062 L 116.207031 -71.78125 L 135.722656 -71.78125 Z M 113.246094 -121.957031 L 109.066406 -109.414062 L 89.550781 -109.414062 L 69.34375 -47.390625 L 88.855469 -47.390625 L 85.023438 -34.84375 L 3.484375 -34.84375 L 7.664062 -47.390625 L 22.996094 -47.390625 L 43.554688 -109.414062 L 28.226562 -109.414062 L 32.753906 -121.957031 Z M 113.246094 -121.957031 "/></g></g></g><g fill="#000000" fill-opacity="1"><g transform="translate(679.688639, 175.617161)"><g><path d="M 218.652344 -89.378906 C 218.652344 -94.082031 217.261719 -97.914062 214.125 -103.316406 C 203.148438 -122.308594 192.519531 -139.03125 171.089844 -139.03125 C 151.925781 -139.03125 141.820312 -127.183594 136.765625 -114.464844 L 128.054688 -129.625 L 40.59375 -129.625 L 33.277344 -108.019531 L 47.914062 -84.152344 C 46.867188 -75.960938 41.640625 -62.722656 38.503906 -58.191406 C 36.414062 -64.988281 29.097656 -69.691406 19.6875 -69.691406 C 1.917969 -69.691406 -7.839844 -56.101562 -7.839844 -42.859375 C -7.839844 -25.089844 12.371094 -3.832031 21.082031 2.789062 C 24.21875 5.226562 29.445312 8.015625 37.109375 8.015625 C 59.933594 8.015625 71.957031 -8.363281 77.703125 -21.605469 L 90.25 0 L 163.074219 0 C 165.6875 -19.164062 173.179688 -50.351562 179.628906 -63.242188 C 182.414062 -61.675781 187.988281 -60.28125 191.996094 -60.28125 C 212.382812 -60.28125 218.652344 -76.484375 218.652344 -89.378906 Z M 191.472656 -111.679688 C 191.472656 -98.785156 183.113281 -93.90625 175.445312 -93.90625 C 168.128906 -93.90625 162.378906 -99.132812 162.378906 -105.40625 C 162.378906 -107.148438 162.726562 -108.367188 163.074219 -109.589844 C 163.25 -109.9375 163.25 -110.285156 163.25 -110.460938 C 163.25 -112.027344 161.683594 -112.722656 160.113281 -112.722656 C 157.5 -112.722656 155.410156 -110.808594 153.144531 -107.324219 C 148.09375 -99.65625 137.8125 -69.34375 132.0625 -33.101562 L 88.332031 -33.101562 C 86.765625 -50.527344 81.1875 -91.46875 78.054688 -109.414062 L 76.3125 -109.414062 C 69.863281 -85.023438 63.417969 -61.5 54.011719 -45.296875 C 46.34375 -32.230469 36.585938 -24.042969 22.824219 -24.042969 C 14.113281 -24.042969 1.394531 -27.527344 1.394531 -43.207031 C 1.394531 -57.144531 11.324219 -60.980469 18.992188 -60.980469 C 27.703125 -60.980469 31.359375 -54.011719 31.359375 -49.304688 C 31.359375 -47.738281 30.488281 -46.171875 30.488281 -44.949219 C 30.488281 -43.382812 31.535156 -42.683594 33.101562 -42.683594 C 36.238281 -42.683594 39.722656 -44.949219 43.554688 -50.875 C 49.828125 -60.628906 58.714844 -84.675781 63.941406 -109.414062 L 43.035156 -109.414062 L 47.214844 -121.957031 L 118.820312 -121.957031 C 121.4375 -113.421875 126.3125 -90.25 128.054688 -73.699219 L 130.148438 -73.699219 C 133.457031 -88.679688 139.207031 -106.277344 145.480469 -116.207031 C 151.578125 -125.617188 159.242188 -130.84375 170.914062 -130.84375 C 179.628906 -130.84375 191.472656 -127.359375 191.472656 -111.679688 Z M 191.472656 -111.679688 "/></g></g></g></svg>